<svg xmlns="http://www.w3.org/2000/svg" viewBox="0 0 763 515"><defs><style>.cls-1,.cls-3{fill:none;}.cls-1,.cls-2{stroke:#3c62c0;}.cls-2{fill:#061d3d;fill-opacity:0.5;fill-rule:evenodd;}.cls-3{stroke:#1b3071;stroke-miterlimit:10;stroke-width:3px;}</style></defs><g id="图层_1" data-name="图层 1"><path class="cls-1" d="M.45,56.79,27.69,21.43l218.05-1.29H761.83l3,463.83L738.1,514.66l-323.57-.37-8.63-13.84L.81,501.11.35,122.68Z"/><path class="cls-2" d="M32,35.68H748.18l1.56,430.08-19.27,22.06H11.17V62.33Z"/><line class="cls-3" x1="458.5" y1="2" x2="458.5" y2="10"/><line class="cls-3" x1="463.5" y1="2" x2="463.5" y2="10"/><line class="cls-3" x1="468.5" y1="2" x2="468.5" y2="10"/><line class="cls-3" x1="473.5" y1="2" x2="473.5" y2="10"/><line class="cls-3" x1="478.5" y1="2" x2="478.5" y2="10"/><line class="cls-3" x1="483.5" y1="2" x2="483.5" y2="10"/><line class="cls-3" x1="488.5" y1="2" x2="488.5" y2="10"/><line class="cls-3" x1="493.5" y1="2" x2="493.5" y2="10"/><line class="cls-3" x1="498.5" y1="2" x2="498.5" y2="10"/><line class="cls-3" x1="503.5" y1="2" x2="503.5" y2="10"/><line class="cls-3" x1="508.5" y1="2" x2="508.5" y2="10"/><line class="cls-3" x1="513.5" y1="2" x2="513.5" y2="10"/><line class="cls-3" x1="518.5" y1="2" x2="518.5" y2="10"/><line class="cls-3" x1="523.5" y1="2" x2="523.5" y2="10"/><line class="cls-3" x1="528.5" y1="2" x2="528.5" y2="10"/><line class="cls-3" x1="533.5" y1="2" x2="533.5" y2="10"/><line class="cls-3" x1="538.5" y1="2" x2="538.5" y2="10"/><line class="cls-3" x1="543.5" y1="2" x2="543.5" y2="10"/><line class="cls-3" x1="548.5" y1="2" x2="548.5" y2="10"/><line class="cls-3" x1="553.5" y1="2" x2="553.5" y2="10"/><line class="cls-3" x1="558.5" y1="2" x2="558.5" y2="10"/><line class="cls-3" x1="563.5" y1="2" x2="563.5" y2="10"/><line class="cls-3" x1="568.5" y1="2" x2="568.5" y2="10"/><line class="cls-3" x1="573.5" y1="2" x2="573.5" y2="10"/><line class="cls-3" x1="578.5" y1="2" x2="578.5" y2="10"/><line class="cls-3" x1="583.5" y1="2" x2="583.5" y2="10"/><line class="cls-3" x1="588.5" y1="2" x2="588.5" y2="10"/><line class="cls-3" x1="593.5" y1="2" x2="593.5" y2="10"/><line class="cls-3" x1="598.5" y1="2" x2="598.5" y2="10"/><line class="cls-3" x1="603.5" y1="2" x2="603.5" y2="10"/><line class="cls-3" x1="608.5" y1="2" x2="608.5" y2="10"/><line class="cls-3" x1="613.5" y1="2" x2="613.5" y2="10"/><line class="cls-3" x1="618.5" y1="2" x2="618.5" y2="10"/><line class="cls-3" x1="623.5" y1="2" x2="623.5" y2="10"/><line class="cls-3" x1="628.5" y1="2" x2="628.5" y2="10"/><line class="cls-3" x1="633.5" y1="2" x2="633.5" y2="10"/><line class="cls-3" x1="638.5" y1="2" x2="638.5" y2="10"/><line class="cls-3" x1="643.5" y1="2" x2="643.5" y2="10"/><line class="cls-3" x1="648.5" y1="2" x2="648.5" y2="10"/><line class="cls-3" x1="653.5" y1="2" x2="653.5" y2="10"/><line class="cls-3" x1="658.5" y1="2" x2="658.5" y2="10"/><line class="cls-3" x1="663.5" y1="2" x2="663.5" y2="10"/><line class="cls-3" x1="668.5" y1="2" x2="668.5" y2="10"/><line class="cls-3" x1="673.5" y1="2" x2="673.5" y2="10"/><line class="cls-3" x1="678.5" y1="2" x2="678.5" y2="10"/><line class="cls-3" x1="683.5" y1="2" x2="683.5" y2="10"/><line class="cls-3" x1="688.5" y1="2" x2="688.5" y2="10"/><line class="cls-3" x1="693.5" y1="2" x2="693.5" y2="10"/><line class="cls-3" x1="698.5" y1="2" x2="698.5" y2="10"/><line class="cls-3" x1="703.5" y1="2" x2="703.5" y2="10"/><line class="cls-3" x1="708.5" y1="2" x2="708.5" y2="10"/><line class="cls-3" x1="713.5" y1="2" x2="713.5" y2="10"/><line class="cls-3" x1="718.5" y1="2" x2="718.5" y2="10"/><line class="cls-3" x1="723.5" y1="2" x2="723.5" y2="10"/><line class="cls-3" x1="728.5" y1="2" x2="728.5" y2="10"/><line class="cls-3" x1="733.5" y1="2" x2="733.5" y2="10"/><line class="cls-3" x1="738.5" y1="2" x2="738.5" y2="10"/><line class="cls-3" x1="743.5" y1="2" x2="743.5" y2="10"/><line class="cls-3" x1="748.5" y1="2" x2="748.5" y2="10"/><line class="cls-3" x1="753.5" y1="2" x2="753.5" y2="10"/><line class="cls-3" x1="758.5" y1="2" x2="758.5" y2="10"/><line class="cls-3" x1="5.5" y1="506" x2="5.5" y2="514"/><line class="cls-3" x1="10.5" y1="506" x2="10.5" y2="514"/><line class="cls-3" x1="15.5" y1="506" x2="15.5" y2="514"/><line class="cls-3" x1="20.5" y1="506" x2="20.5" y2="514"/><line class="cls-3" x1="25.5" y1="506" x2="25.5" y2="514"/><line class="cls-3" x1="30.5" y1="506" x2="30.5" y2="514"/><line class="cls-3" x1="35.5" y1="506" x2="35.5" y2="514"/><line class="cls-3" x1="40.5" y1="506" x2="40.5" y2="514"/><line class="cls-3" x1="45.5" y1="506" x2="45.5" y2="514"/><line class="cls-3" x1="50.5" y1="506" x2="50.5" y2="514"/><line class="cls-3" x1="55.5" y1="506" x2="55.5" y2="514"/><line class="cls-3" x1="60.5" y1="506" x2="60.5" y2="514"/><line class="cls-3" x1="65.5" y1="506" x2="65.5" y2="514"/><line class="cls-3" x1="70.5" y1="506" x2="70.5" y2="514"/><line class="cls-3" x1="75.5" y1="506" x2="75.5" y2="514"/><line class="cls-3" x1="80.5" y1="506" x2="80.5" y2="514"/><line class="cls-3" x1="85.5" y1="506" x2="85.5" y2="514"/><line class="cls-3" x1="90.5" y1="506" x2="90.5" y2="514"/><line class="cls-3" x1="95.5" y1="506" x2="95.5" y2="514"/><line class="cls-3" x1="100.5" y1="506" x2="100.5" y2="514"/><line class="cls-3" x1="105.5" y1="506" x2="105.5" y2="514"/><line class="cls-3" x1="110.5" y1="506" x2="110.5" y2="514"/><line class="cls-3" x1="115.5" y1="506" x2="115.5" y2="514"/><line class="cls-3" x1="120.5" y1="506" x2="120.5" y2="514"/><line class="cls-3" x1="125.5" y1="506" x2="125.5" y2="514"/><line class="cls-3" x1="130.5" y1="506" x2="130.5" y2="514"/><line class="cls-3" x1="135.5" y1="506" x2="135.5" y2="514"/><line class="cls-3" x1="140.5" y1="506" x2="140.5" y2="514"/><line class="cls-3" x1="145.5" y1="506" x2="145.5" y2="514"/><line class="cls-3" x1="150.5" y1="506" x2="150.5" y2="514"/><line class="cls-3" x1="155.5" y1="506" x2="155.5" y2="514"/><line class="cls-3" x1="160.5" y1="506" x2="160.5" y2="514"/><line class="cls-3" x1="165.5" y1="506" x2="165.5" y2="514"/><line class="cls-3" x1="170.5" y1="506" x2="170.5" y2="514"/><line class="cls-3" x1="175.5" y1="506" x2="175.5" y2="514"/><line class="cls-3" x1="180.5" y1="506" x2="180.5" y2="514"/><line class="cls-3" x1="185.5" y1="506" x2="185.5" y2="514"/><line class="cls-3" x1="190.5" y1="506" x2="190.5" y2="514"/><line class="cls-3" x1="195.5" y1="506" x2="195.5" y2="514"/><line class="cls-3" x1="200.5" y1="506" x2="200.5" y2="514"/><line class="cls-3" x1="205.5" y1="506" x2="205.5" y2="514"/><line class="cls-3" x1="210.5" y1="506" x2="210.5" y2="514"/><line class="cls-3" x1="215.5" y1="506" x2="215.5" y2="514"/><line class="cls-3" x1="220.5" y1="506" x2="220.5" y2="514"/><line class="cls-3" x1="225.5" y1="506" x2="225.5" y2="514"/><line class="cls-3" x1="230.5" y1="506" x2="230.5" y2="514"/><line class="cls-3" x1="235.5" y1="506" x2="235.5" y2="514"/><line class="cls-3" x1="240.5" y1="506" x2="240.5" y2="514"/><line class="cls-3" x1="245.5" y1="506" x2="245.5" y2="514"/><line class="cls-3" x1="250.5" y1="506" x2="250.5" y2="514"/><line class="cls-3" x1="255.5" y1="506" x2="255.5" y2="514"/><line class="cls-3" x1="260.5" y1="506" x2="260.5" y2="514"/><line class="cls-3" x1="265.5" y1="506" x2="265.5" y2="514"/><line class="cls-3" x1="270.5" y1="506" x2="270.5" y2="514"/><line class="cls-3" x1="275.5" y1="506" x2="275.5" y2="514"/><line class="cls-3" x1="280.5" y1="506" x2="280.5" y2="514"/><line class="cls-3" x1="285.5" y1="506" x2="285.5" y2="514"/><line class="cls-3" x1="290.5" y1="506" x2="290.5" y2="514"/><line class="cls-3" x1="295.5" y1="506" x2="295.5" y2="514"/><line class="cls-3" x1="300.5" y1="506" x2="300.5" y2="514"/><line class="cls-3" x1="305.5" y1="506" x2="305.5" y2="514"/></g></svg>