<svg t="1681275066797" class="icon" viewBox="0 0 1024 1024" version="1.1" xmlns="http://www.w3.org/2000/svg" p-id="4364" width="200" height="200"><path d="M395.2 990.4c-16 0-30.4-8-38.4-20.8s-11.2-28.8-4.8-43.2v-1.6c8-28.8 12.8-57.6 11.2-86.4-8-417.6-110.4-635.2-112-638.4-3.2-4.8-1.6-11.2 1.6-16s8-8 12.8-8h505.6c4.8 0 11.2 3.2 12.8 8 3.2 4.8 3.2 11.2 1.6 16-1.6 1.6-102.4 216-112 630.4 0 33.6 3.2 65.6 12.8 96l1.6 3.2c4.8 16 1.6 30.4-6.4 41.6-8 11.2-22.4 17.6-38.4 17.6H395.2v1.6z" fill="#FFFFFF" p-id="4365"></path><path d="M771.2 195.2S667.2 408 657.6 832c0 33.6 3.2 68.8 12.8 100.8l1.6 3.2c6.4 22.4-8 40-30.4 40H395.2c-22.4 0-36.8-22.4-28.8-43.2v-1.6c8-30.4 12.8-60.8 12.8-91.2-8-427.2-113.6-644.8-113.6-644.8h505.6m0-32H265.6c-11.2 0-20.8 6.4-27.2 14.4-6.4 9.6-6.4 20.8-1.6 30.4 1.6 1.6 102.4 217.6 110.4 630.4 0 27.2-3.2 54.4-11.2 81.6v1.6c-6.4 19.2-4.8 40 8 57.6 11.2 17.6 32 27.2 52.8 27.2h246.4c20.8 0 40-9.6 51.2-24 11.2-16 14.4-35.2 9.6-56l-1.6-3.2c-8-28.8-12.8-60.8-11.2-91.2 8-395.2 102.4-606.4 108.8-622.4 1.6-4.8 3.2-9.6 3.2-14.4 0-17.6-14.4-32-32-32z" fill="" p-id="4366"></path><path d="M460.8 339.2c-8 0-14.4-6.4-16-14.4l-32-278.4H216c-9.6 0-16-6.4-16-16s6.4-16 16-16h211.2c8 0 14.4 6.4 16 14.4l33.6 292.8c1.6 8-4.8 16-14.4 17.6h-1.6z" fill="" p-id="4367"></path><path d="M702.4 932.8c-9.6-32-12.8-65.6-12.8-99.2 4.8-220.8 44.8-432 72-537.6H388.8c-20.8 0-35.2 19.2-30.4 40 25.6 105.6 49.6 305.6 52.8 500.8 0 32-3.2 64-12.8 94.4v1.6c-8 20.8 6.4 43.2 28.8 43.2h246.4c22.4 0 35.2-17.6 30.4-40l-1.6-3.2z" fill="#D3DB31" p-id="4368"></path><path d="M606.4 812.8c-9.6 0-16-6.4-16-16 0-62.4 3.2-123.2 8-177.6 1.6-8 8-14.4 17.6-14.4 8 1.6 16 8 14.4 17.6-4.8 52.8-8 113.6-8 174.4 0 9.6-6.4 16-16 16zM622.4 561.6h-3.2c-8-1.6-14.4-9.6-12.8-17.6 1.6-11.2 3.2-20.8 4.8-28.8 1.6-8 3.2-14.4 3.2-20.8 1.6-8 9.6-14.4 17.6-12.8 8 1.6 14.4 9.6 12.8 17.6-1.6 4.8-1.6 12.8-3.2 20.8s-3.2 17.6-4.8 28.8c0 6.4-6.4 12.8-14.4 12.8z" fill="#929E27" p-id="4369"></path><path d="M670.4 944l-228.8-3.2c-9.6 0-16-8-16-16 0-9.6 6.4-16 16-16l228.8 3.2c9.6 0 16 8 16 16 0 9.6-8 16-16 16z" fill="" p-id="4370"></path><path d="M771.2 195.2S667.2 408 657.6 832c0 33.6 3.2 68.8 12.8 100.8l1.6 3.2c6.4 22.4-8 40-30.4 40H395.2c-22.4 0-36.8-22.4-28.8-43.2v-1.6c8-30.4 12.8-60.8 12.8-91.2-8-427.2-113.6-644.8-113.6-644.8h505.6m0-32H265.6c-11.2 0-20.8 6.4-27.2 14.4-6.4 9.6-6.4 20.8-1.6 30.4 1.6 1.6 102.4 217.6 110.4 630.4 0 27.2-3.2 54.4-11.2 81.6v1.6c-6.4 19.2-4.8 40 8 57.6 11.2 17.6 32 27.2 52.8 27.2h246.4c20.8 0 40-9.6 51.2-24 11.2-16 14.4-35.2 9.6-56l-1.6-3.2c-8-28.8-12.8-60.8-11.2-91.2 8-395.2 102.4-606.4 108.8-622.4 1.6-4.8 3.2-9.6 3.2-14.4 0-17.6-14.4-32-32-32z" fill="" p-id="4371"></path></svg>